<svg width="567" height="198" viewBox="0 0 567 198" fill="none" xmlns="http://www.w3.org/2000/svg">
<path d="M120.72 163.24C115.2 163.24 110.84 160.56 107.64 155.2C104.52 149.84 102.68 142.8 102.12 134.08C101.48 123.28 102.64 113.76 105.6 105.52C108.64 97.2 113.2 90.72 119.28 86.08C125.36 81.44 132.6 79.12 141 79.12C149.48 79.12 156.72 81.44 162.72 86.08C168.8 90.72 173.32 97.16 176.28 105.4C179.32 113.64 180.48 123.2 179.76 134.08C179.2 143.04 177.32 150.12 174.12 155.32C171 160.52 166.68 163.12 161.16 163.12C158.04 163.12 155.64 162.56 153.96 161.44C152.28 160.24 151.08 158.76 150.36 157C149.72 155.16 149.4 153.32 149.4 151.48C149.4 149.56 149.52 147.92 149.76 146.56C147.2 146.64 144.2 146.72 140.76 146.8C137.32 146.8 134.44 146.72 132.12 146.56C132.36 147.92 132.48 149.56 132.48 151.48C132.48 153.32 132.12 155.16 131.4 157C130.76 158.76 129.6 160.24 127.92 161.44C126.24 162.64 123.84 163.24 120.72 163.24ZM131.28 125.2C137.6 124.96 143.92 124.96 150.24 125.2C150.64 122.4 150.6 119.72 150.12 117.16C149.64 114.6 148.64 112.52 147.12 110.92C145.6 109.32 143.44 108.52 140.64 108.52C137.84 108.52 135.68 109.32 134.16 110.92C132.72 112.52 131.76 114.6 131.28 117.16C130.88 119.64 130.88 122.32 131.28 125.2ZM201.054 163C198.574 163 196.374 162 194.454 160C192.614 158 191.054 155.36 189.774 152.08C188.574 148.8 187.574 145.2 186.774 141.28C186.054 137.36 185.534 133.44 185.214 129.52C184.894 125.52 184.734 121.92 184.734 118.72C184.734 114.64 185.054 110.32 185.694 105.76C186.334 101.2 187.454 96.92 189.054 92.92C190.654 88.84 192.854 85.52 195.654 82.96C198.454 80.4 202.054 79.12 206.454 79.12C209.494 79.12 212.134 80.12 214.374 82.12C216.694 84.04 218.774 86.76 220.614 90.28C222.454 93.72 224.214 97.68 225.894 102.16C227.574 106.64 229.374 111.4 231.294 116.44C230.974 109.56 231.174 103.32 231.894 97.72C232.694 92.04 234.294 87.52 236.694 84.16C239.094 80.8 242.494 79.12 246.894 79.12C250.654 79.12 253.654 80.4 255.894 82.96C258.214 85.52 259.974 88.84 261.174 92.92C262.374 96.92 263.174 101.2 263.574 105.76C264.054 110.32 264.294 114.64 264.294 118.72C264.294 122 264.054 125.6 263.574 129.52C263.094 133.44 262.294 137.36 261.174 141.28C260.054 145.2 258.534 148.8 256.614 152.08C254.694 155.36 252.334 158 249.534 160C246.814 162 243.534 163 239.694 163C236.254 163 233.294 161.92 230.814 159.76C228.414 157.52 226.254 154.6 224.334 151C222.494 147.32 220.774 143.28 219.174 138.88C217.574 134.48 215.894 130.08 214.134 125.68C214.214 131.2 214.214 136.28 214.134 140.92C214.054 145.48 213.614 149.4 212.814 152.68C212.094 155.96 210.814 158.52 208.974 160.36C207.134 162.12 204.494 163 201.054 163ZM314.378 163C311.578 163 309.258 162.28 307.418 160.84C305.658 159.32 304.458 157.44 303.818 155.2C303.178 152.96 302.778 150.48 302.618 147.76C302.458 144.96 302.378 142.16 302.378 139.36C302.458 136.48 302.458 133.84 302.378 131.44C302.298 129.04 302.058 127.12 301.658 125.68C301.258 124.24 300.498 123.52 299.378 123.52C297.778 123.52 296.658 124.2 296.018 125.56C295.378 126.84 295.058 128.6 295.058 130.84C295.058 133 295.178 135.36 295.418 137.92C295.738 140.48 296.058 143.04 296.378 145.6C296.698 148.08 296.858 150.28 296.858 152.2C296.858 156.2 295.938 158.96 294.098 160.48C292.338 162 289.898 162.76 286.778 162.76C283.658 162.76 280.898 161.48 278.498 158.92C276.178 156.28 274.218 152.92 272.618 148.84C271.098 144.68 269.938 140.2 269.138 135.4C268.338 130.6 267.938 126.04 267.938 121.72C267.938 116.44 268.498 111.32 269.618 106.36C270.818 101.4 272.578 96.96 274.898 93.04C277.298 89.12 280.258 86 283.778 83.68C287.298 81.36 291.458 80.2 296.258 80.2C300.018 80.2 303.138 81.04 305.618 82.72C308.098 84.32 310.058 86.36 311.498 88.84C313.018 91.32 314.058 93.84 314.618 96.4C315.178 93.84 316.178 91.32 317.618 88.84C319.058 86.36 321.018 84.32 323.498 82.72C325.978 81.04 329.058 80.2 332.737 80.2C338.818 80.2 343.978 82.08 348.218 85.84C352.538 89.6 355.818 94.8 358.058 101.44C360.298 108 361.418 115.64 361.418 124.36C361.418 128.44 360.978 132.76 360.098 137.32C359.218 141.8 357.938 146 356.258 149.92C354.658 153.76 352.698 156.92 350.378 159.4C348.058 161.8 345.418 163 342.458 163C339.258 163 336.738 162.2 334.898 160.6C333.058 159 332.138 156.2 332.138 152.2C332.138 150.28 332.298 148.08 332.618 145.6C332.938 143.04 333.258 140.48 333.578 137.92C333.898 135.36 334.058 133 334.058 130.84C334.058 128.6 333.738 126.84 333.098 125.56C332.538 124.2 331.458 123.52 329.858 123.52C328.738 123.52 327.938 124.24 327.458 125.68C327.058 127.12 326.778 129.04 326.617 131.44C326.538 133.76 326.498 136.36 326.498 139.24C326.498 142.04 326.418 144.84 326.258 147.64C326.178 150.44 325.818 152.96 325.178 155.2C324.618 157.44 323.418 159.32 321.578 160.84C319.738 162.28 317.338 163 314.378 163ZM406.126 163C402.846 163 399.326 162.76 395.566 162.28C391.886 161.8 388.246 160.8 384.646 159.28C381.046 157.76 377.766 155.52 374.806 152.56C371.846 149.6 369.486 145.68 367.726 140.8C365.966 135.84 365.086 129.72 365.086 122.44C365.086 114.44 366.446 107.16 369.166 100.6C371.886 94.04 376.006 88.8 381.526 84.88C387.046 80.96 393.966 79 402.286 79C408.286 79 413.166 79.52 416.926 80.56C420.766 81.6 423.766 82.96 425.926 84.64C428.086 86.32 429.566 88.16 430.366 90.16C431.246 92.16 431.686 94.16 431.686 96.16C431.686 98.24 431.126 100.24 430.006 102.16C428.966 104.08 427.286 105.6 424.966 106.72C422.726 107.76 420.406 108.24 418.006 108.16C415.606 108 413.446 107.92 411.526 107.92C407.366 107.92 404.086 108.68 401.686 110.2C399.366 111.64 397.726 113.88 396.766 116.92C398.046 116.84 399.446 116.8 400.966 116.8C402.566 116.72 404.206 116.68 405.886 116.68C409.166 116.68 412.286 116.76 415.246 116.92C418.286 117 420.406 117.16 421.606 117.4C424.406 117.96 426.526 119.08 427.966 120.76C429.406 122.36 430.126 124.2 430.126 126.28C430.126 128.28 429.446 130.08 428.086 131.68C426.726 133.28 424.526 134.4 421.486 135.04C420.366 135.28 418.206 135.48 415.006 135.64C411.886 135.72 408.606 135.76 405.166 135.76C403.806 135.76 402.486 135.76 401.206 135.76C399.926 135.68 398.766 135.64 397.726 135.64C398.846 138.12 400.526 140.08 402.766 141.52C405.086 142.88 408.046 143.56 411.646 143.56C413.006 143.56 414.966 143.44 417.526 143.2C420.086 142.88 422.566 143.08 424.966 143.8C428.806 145 430.726 147.52 430.726 151.36C430.726 153.44 430.006 155.4 428.566 157.24C427.206 159 424.726 160.4 421.126 161.44C417.606 162.48 412.606 163 406.126 163Z" fill="#2AE1D7"/>
<path d="M98.2353 95.419C98.2353 127.054 103.367 175 23.3672 160.632C-4.83462 160.632 0.380076 127.054 0.380076 95.419C0.380076 63.7846 7.8672 58.0769 32.8672 58.0769C70.3672 58.0769 93.8672 69.9674 98.2353 95.419Z" fill="#2AE1D7"/>
<g filter="url(#filter0_ii_106_194)">
<path d="M81.3179 130.187C81.3179 147.922 63.5118 142.657 52.7234 142.657C41.935 142.657 40 136.603 40 126.489C40 116.376 41.935 107.55 52.7234 107.55C63.5118 107.55 81.3179 120.074 81.3179 130.187Z" fill="white"/>
</g>
<g filter="url(#filter1_ii_106_194)">
<path d="M152 119.848C152 128.839 147.299 126.663 141.5 126.663C135.701 126.663 131 128.553 131 119.848C131 112.795 135.701 107.077 141.5 107.077C147.299 107.077 152 112.795 152 119.848Z" fill="white"/>
</g>
<g filter="url(#filter2_ii_106_194)">
<ellipse cx="475.5" cy="116.463" rx="12.5" ry="12.3859" fill="white"/>
</g>
<path d="M512.714 142.193C525.62 140.023 514.049 155.016 506.862 156.216C499.675 157.417 493.665 151.027 489.382 146.09C481.026 136.462 484.581 131.971 492.461 130.74C511.613 127.537 504.66 145.9 512.714 142.193Z" fill="white"/>
<path d="M483.388 155.439C483.005 158.532 476.982 161.248 469.789 162.69C462.596 164.133 456.201 162.49 455.506 159.021C454.81 155.551 460.077 151.569 467.27 150.127C482.705 147.031 483.751 152.505 483.388 155.439Z" fill="white"/>
<path d="M464.359 162.658C460.812 163.268 457.737 162.62 455.136 160.714C452.522 158.728 450.291 155.905 448.444 152.246C446.583 148.507 445.056 144.346 443.861 139.762C442.667 135.178 441.676 130.599 440.89 126.027C439.967 120.665 439.775 115.3 440.313 109.931C440.929 104.549 442.383 99.5503 444.674 94.9351C447.03 90.2276 450.323 86.2517 454.554 83.0074C458.786 79.7631 464.094 77.5917 470.481 76.4931C476.946 75.381 483.011 75.7177 488.675 77.5032C494.419 79.2752 499.295 82.3735 503.303 86.798C507.311 91.2226 509.905 96.8645 511.085 103.724C512.143 109.873 512.105 115.319 510.972 120.059C509.84 124.8 507.901 128.867 505.157 132.262C502.478 135.564 499.283 138.224 495.571 140.242C491.938 142.247 488.105 143.556 484.07 144.169C480.022 144.703 476.142 144.559 472.428 143.736C473.148 145.561 473.678 147.458 474.017 149.429C474.435 151.387 474.438 153.294 474.027 155.151C473.681 156.915 472.735 158.498 471.191 159.9C469.711 161.21 467.434 162.129 464.359 162.658ZM480.187 125.842C483.025 125.354 485.293 123.908 486.991 121.506C488.753 119.011 489.397 116.384 488.922 113.624C488.434 110.786 486.949 108.525 484.468 106.841C482.052 105.065 479.425 104.421 476.586 104.909C473.748 105.398 471.448 106.889 469.685 109.384C467.988 111.787 467.383 114.407 467.872 117.245C468.346 120.005 469.792 122.273 472.208 124.049C474.689 125.732 477.349 126.33 480.187 125.842Z" fill="white"/>
<ellipse cx="477.33" cy="110.455" rx="17.5" ry="16" transform="rotate(6.04882 477.33 110.455)" fill="white"/>
<g filter="url(#filter3_i_106_194)">
<path d="M497.748 119.545C497.513 125.616 491.954 130.329 485.332 130.074C478.709 129.818 473.531 124.689 473.766 118.618C474 112.548 483.305 114.484 489.927 114.74C496.55 114.996 497.982 113.475 497.748 119.545Z" fill="#2AE1D7"/>
</g>
<g filter="url(#filter4_i_106_194)">
<path d="M499.448 105.76C499.215 107.956 497.913 109.619 496.54 109.474C495.167 109.328 494.243 107.43 494.476 105.233C494.709 103.036 496.01 101.373 497.383 101.518C498.756 101.664 499.681 103.563 499.448 105.76Z" fill="#2AE1D7"/>
</g>
<g filter="url(#filter5_i_106_194)">
<path d="M474.271 106.108C474.038 108.305 472.736 109.968 471.363 109.823C469.99 109.677 469.066 107.778 469.299 105.582C469.532 103.385 470.833 101.722 472.206 101.867C473.579 102.013 474.504 103.912 474.271 106.108Z" fill="#2AE1D7"/>
</g>
<defs>
<filter id="filter0_ii_106_194" x="40" y="107.55" width="41.3179" height="39.8376" filterUnits="userSpaceOnUse" color-interpolation-filters="sRGB">
<feFlood flood-opacity="0" result="BackgroundImageFix"/>
<feBlend mode="normal" in="SourceGraphic" in2="BackgroundImageFix" result="shape"/>
<feColorMatrix in="SourceAlpha" type="matrix" values="0 0 0 0 0 0 0 0 0 0 0 0 0 0 0 0 0 0 127 0" result="hardAlpha"/>
<feOffset dy="4"/>
<feGaussianBlur stdDeviation="2"/>
<feComposite in2="hardAlpha" operator="arithmetic" k2="-1" k3="1"/>
<feColorMatrix type="matrix" values="0 0 0 0 0 0 0 0 0 0 0 0 0 0 0 0 0 0 0.25 0"/>
<feBlend mode="normal" in2="shape" result="effect1_innerShadow_106_194"/>
<feColorMatrix in="SourceAlpha" type="matrix" values="0 0 0 0 0 0 0 0 0 0 0 0 0 0 0 0 0 0 127 0" result="hardAlpha"/>
<feOffset dy="4"/>
<feGaussianBlur stdDeviation="2"/>
<feComposite in2="hardAlpha" operator="arithmetic" k2="-1" k3="1"/>
<feColorMatrix type="matrix" values="0 0 0 0 0 0 0 0 0 0 0 0 0 0 0 0 0 0 0.25 0"/>
<feBlend mode="normal" in2="effect1_innerShadow_106_194" result="effect2_innerShadow_106_194"/>
</filter>
<filter id="filter1_ii_106_194" x="131" y="107.077" width="21" height="23.8174" filterUnits="userSpaceOnUse" color-interpolation-filters="sRGB">
<feFlood flood-opacity="0" result="BackgroundImageFix"/>
<feBlend mode="normal" in="SourceGraphic" in2="BackgroundImageFix" result="shape"/>
<feColorMatrix in="SourceAlpha" type="matrix" values="0 0 0 0 0 0 0 0 0 0 0 0 0 0 0 0 0 0 127 0" result="hardAlpha"/>
<feOffset dy="4"/>
<feGaussianBlur stdDeviation="2"/>
<feComposite in2="hardAlpha" operator="arithmetic" k2="-1" k3="1"/>
<feColorMatrix type="matrix" values="0 0 0 0 0 0 0 0 0 0 0 0 0 0 0 0 0 0 0.25 0"/>
<feBlend mode="normal" in2="shape" result="effect1_innerShadow_106_194"/>
<feColorMatrix in="SourceAlpha" type="matrix" values="0 0 0 0 0 0 0 0 0 0 0 0 0 0 0 0 0 0 127 0" result="hardAlpha"/>
<feOffset dy="4"/>
<feGaussianBlur stdDeviation="2"/>
<feComposite in2="hardAlpha" operator="arithmetic" k2="-1" k3="1"/>
<feColorMatrix type="matrix" values="0 0 0 0 0 0 0 0 0 0 0 0 0 0 0 0 0 0 0.25 0"/>
<feBlend mode="normal" in2="effect1_innerShadow_106_194" result="effect2_innerShadow_106_194"/>
</filter>
<filter id="filter2_ii_106_194" x="463" y="104.077" width="25" height="28.7719" filterUnits="userSpaceOnUse" color-interpolation-filters="sRGB">
<feFlood flood-opacity="0" result="BackgroundImageFix"/>
<feBlend mode="normal" in="SourceGraphic" in2="BackgroundImageFix" result="shape"/>
<feColorMatrix in="SourceAlpha" type="matrix" values="0 0 0 0 0 0 0 0 0 0 0 0 0 0 0 0 0 0 127 0" result="hardAlpha"/>
<feOffset dy="4"/>
<feGaussianBlur stdDeviation="2"/>
<feComposite in2="hardAlpha" operator="arithmetic" k2="-1" k3="1"/>
<feColorMatrix type="matrix" values="0 0 0 0 0 0 0 0 0 0 0 0 0 0 0 0 0 0 0.25 0"/>
<feBlend mode="normal" in2="shape" result="effect1_innerShadow_106_194"/>
<feColorMatrix in="SourceAlpha" type="matrix" values="0 0 0 0 0 0 0 0 0 0 0 0 0 0 0 0 0 0 127 0" result="hardAlpha"/>
<feOffset dy="4"/>
<feGaussianBlur stdDeviation="2"/>
<feComposite in2="hardAlpha" operator="arithmetic" k2="-1" k3="1"/>
<feColorMatrix type="matrix" values="0 0 0 0 0 0 0 0 0 0 0 0 0 0 0 0 0 0 0.25 0"/>
<feBlend mode="normal" in2="effect1_innerShadow_106_194" result="effect2_innerShadow_106_194"/>
</filter>
<filter id="filter3_i_106_194" x="473.758" y="114.245" width="24.0134" height="19.8384" filterUnits="userSpaceOnUse" color-interpolation-filters="sRGB">
<feFlood flood-opacity="0" result="BackgroundImageFix"/>
<feBlend mode="normal" in="SourceGraphic" in2="BackgroundImageFix" result="shape"/>
<feColorMatrix in="SourceAlpha" type="matrix" values="0 0 0 0 0 0 0 0 0 0 0 0 0 0 0 0 0 0 127 0" result="hardAlpha"/>
<feOffset dy="4"/>
<feGaussianBlur stdDeviation="2"/>
<feComposite in2="hardAlpha" operator="arithmetic" k2="-1" k3="1"/>
<feColorMatrix type="matrix" values="0 0 0 0 0 0 0 0 0 0 0 0 0 0 0 0 0 0 0.25 0"/>
<feBlend mode="normal" in2="shape" result="effect1_innerShadow_106_194"/>
</filter>
<filter id="filter4_i_106_194" x="494.44" y="101.51" width="5.04395" height="11.9732" filterUnits="userSpaceOnUse" color-interpolation-filters="sRGB">
<feFlood flood-opacity="0" result="BackgroundImageFix"/>
<feBlend mode="normal" in="SourceGraphic" in2="BackgroundImageFix" result="shape"/>
<feColorMatrix in="SourceAlpha" type="matrix" values="0 0 0 0 0 0 0 0 0 0 0 0 0 0 0 0 0 0 127 0" result="hardAlpha"/>
<feOffset dy="4"/>
<feGaussianBlur stdDeviation="2"/>
<feComposite in2="hardAlpha" operator="arithmetic" k2="-1" k3="1"/>
<feColorMatrix type="matrix" values="0 0 0 0 0 0 0 0 0 0 0 0 0 0 0 0 0 0 0.25 0"/>
<feBlend mode="normal" in2="shape" result="effect1_innerShadow_106_194"/>
</filter>
<filter id="filter5_i_106_194" x="469.263" y="101.858" width="5.04395" height="11.9732" filterUnits="userSpaceOnUse" color-interpolation-filters="sRGB">
<feFlood flood-opacity="0" result="BackgroundImageFix"/>
<feBlend mode="normal" in="SourceGraphic" in2="BackgroundImageFix" result="shape"/>
<feColorMatrix in="SourceAlpha" type="matrix" values="0 0 0 0 0 0 0 0 0 0 0 0 0 0 0 0 0 0 127 0" result="hardAlpha"/>
<feOffset dy="4"/>
<feGaussianBlur stdDeviation="2"/>
<feComposite in2="hardAlpha" operator="arithmetic" k2="-1" k3="1"/>
<feColorMatrix type="matrix" values="0 0 0 0 0 0 0 0 0 0 0 0 0 0 0 0 0 0 0.25 0"/>
<feBlend mode="normal" in2="shape" result="effect1_innerShadow_106_194"/>
</filter>
</defs>
</svg>
